HIERARCHY
ROOT Hips
{
	OFFSET 0.000000 100.481300 0.000000
	CHANNELS 6 Xposition Yposition Zposition Xrotation Yrotation Zrotation
	JOINT Spine
	{
		OFFSET -0.279200 12.230698 -2.892100
		CHANNELS 3 Xrotation Yrotation Zrotation
		JOINT Spine1
		{
			OFFSET -0.325700 14.269203 -3.374200
			CHANNELS 3 Xrotation Yrotation Zrotation
			JOINT Spine2
			{
				OFFSET -0.372300 16.307602 -0.352600
				CHANNELS 3 Xrotation Yrotation Zrotation
				JOINT Neck
				{
					OFFSET -0.418800 17.814194 8.416900
					CHANNELS 3 Xrotation Yrotation Zrotation
					JOINT Head
					{
						OFFSET 0.000000 7.031097 3.806800
						CHANNELS 3 Xrotation Yrotation Zrotation
						JOINT HeadTop_End
						{
							OFFSET 0.000000 24.646606 12.978600
							CHANNELS 3 Xrotation Yrotation Zrotation
							End Site
							{
								OFFSET 0.000000 27.854965 0.000000
							}
						}
					}
				}
				JOINT LeftShoulder
				{
					OFFSET 16.952999 14.495407 -7.737500
					CHANNELS 3 Xrotation Yrotation Zrotation
					JOINT LeftArm
					{
						OFFSET 9.308998 -2.777710 0.208600
						CHANNELS 3 Xrotation Yrotation Zrotation
						JOINT LeftForeArm
						{
							OFFSET 29.972298 0.000000 0.000000
							CHANNELS 3 Xrotation Yrotation Zrotation
							JOINT LeftHand
							{
								OFFSET 26.026505 0.000000 0.000000
								CHANNELS 3 Xrotation Yrotation Zrotation
								JOINT LeftHandThumb1
								{
									OFFSET 12.240501 -7.147949 9.207150
									CHANNELS 3 Xrotation Yrotation Zrotation
									JOINT LeftHandThumb2
									{
										OFFSET 4.138618 -2.389435 2.389433
										CHANNELS 3 Xrotation Yrotation Zrotation
										JOINT LeftHandThumb3
										{
											OFFSET 2.726913 -1.574387 1.574386
											CHANNELS 3 Xrotation Yrotation Zrotation
											JOINT LeftHandThumb4
											{
												OFFSET 3.941010 -2.275345 2.275342
												CHANNELS 3 Xrotation Yrotation Zrotation
												End Site
												{
													OFFSET -0.005798 5.087799 0.009903
												}
											}
										}
									}
								}
								JOINT LeftHandIndex1
								{
									OFFSET 24.424698 -1.985611 5.953459
									CHANNELS 3 Xrotation Yrotation Zrotation
									JOINT LeftHandIndex2
									{
										OFFSET 6.426697 0.000000 0.000000
										CHANNELS 3 Xrotation Yrotation Zrotation
										JOINT LeftHandIndex3
										{
											OFFSET 5.337898 0.000000 0.000000
											CHANNELS 3 Xrotation Yrotation Zrotation
											JOINT LeftHandIndex4
											{
												OFFSET 4.409401 0.000000 0.000000
												CHANNELS 3 Xrotation Yrotation Zrotation
												End Site
												{
													OFFSET 0.000000 4.409363 0.014373
												}
											}
										}
									}
								}
								JOINT LeftHandMiddle1
								{
									OFFSET 23.810104 0.000000 0.000000
									CHANNELS 3 Xrotation Yrotation Zrotation
									JOINT LeftHandMiddle2
									{
										OFFSET 7.176498 0.000000 0.000000
										CHANNELS 3 Xrotation Yrotation Zrotation
										JOINT LeftHandMiddle3
										{
											OFFSET 6.774902 0.000000 0.000000
											CHANNELS 3 Xrotation Yrotation Zrotation
											JOINT LeftHandMiddle4
											{
												OFFSET 5.403328 0.000000 0.000000
												CHANNELS 3 Xrotation Yrotation Zrotation
												End Site
												{
													OFFSET -0.027702 5.403244 0.017414
												}
											}
										}
									}
								}
								JOINT LeftHandRing1
								{
									OFFSET 22.908401 -0.839279 -6.020567
									CHANNELS 3 Xrotation Yrotation Zrotation
									JOINT LeftHandRing2
									{
										OFFSET 6.337502 0.000000 0.000000
										CHANNELS 3 Xrotation Yrotation Zrotation
										JOINT LeftHandRing3
										{
											OFFSET 5.779297 0.000000 0.000000
											CHANNELS 3 Xrotation Yrotation Zrotation
											JOINT LeftHandRing4
											{
												OFFSET 4.965698 0.000000 0.000000
												CHANNELS 3 Xrotation Yrotation Zrotation
												End Site
												{
													OFFSET 0.000000 4.965668 0.016186
												}
											}
										}
									}
								}
								JOINT LeftHandPinky1
								{
									OFFSET 20.037003 -1.530319 -10.950146
									CHANNELS 3 Xrotation Yrotation Zrotation
									JOINT LeftHandPinky2
									{
										OFFSET 5.254700 0.000000 0.000000
										CHANNELS 3 Xrotation Yrotation Zrotation
										JOINT LeftHandPinky3
										{
											OFFSET 4.810204 0.000000 0.000000
											CHANNELS 3 Xrotation Yrotation Zrotation
											JOINT LeftHandPinky4
											{
												OFFSET 3.647202 0.000000 0.000000
												CHANNELS 3 Xrotation Yrotation Zrotation
												End Site
												{
													OFFSET 0.000000 3.647186 0.011889
												}
											}
										}
									}
								}
							}
						}
					}
				}
				JOINT RightShoulder
				{
					OFFSET -15.141001 14.495407 -7.737500
					CHANNELS 3 Xrotation Yrotation Zrotation
					JOINT RightArm
					{
						OFFSET -9.308998 -2.777710 0.208500
						CHANNELS 3 Xrotation Yrotation Zrotation
						JOINT RightForeArm
						{
							OFFSET -29.972300 0.000000 0.000000
							CHANNELS 3 Xrotation Yrotation Zrotation
							JOINT RightHand
							{
								OFFSET -26.026505 0.000000 0.000000
								CHANNELS 3 Xrotation Yrotation Zrotation
								JOINT RightHandThumb1
								{
									OFFSET -12.240601 -7.148026 9.207092
									CHANNELS 3 Xrotation Yrotation Zrotation
									JOINT RightHandThumb2
									{
										OFFSET -4.138618 -2.389435 2.389433
										CHANNELS 3 Xrotation Yrotation Zrotation
										JOINT RightHandThumb3
										{
											OFFSET -2.726974 -1.574417 1.574421
											CHANNELS 3 Xrotation Yrotation Zrotation
											JOINT RightHandThumb4
											{
												OFFSET -3.941010 -2.275345 2.275343
												CHANNELS 3 Xrotation Yrotation Zrotation
												End Site
												{
													OFFSET 0.005814 5.087799 0.009927
												}
											}
										}
									}
								}
								JOINT RightHandIndex1
								{
									OFFSET -24.424698 -1.985657 5.953444
									CHANNELS 3 Xrotation Yrotation Zrotation
									JOINT RightHandIndex2
									{
										OFFSET -6.426697 0.000000 0.000000
										CHANNELS 3 Xrotation Yrotation Zrotation
										JOINT RightHandIndex3
										{
											OFFSET -5.337898 0.000000 0.000000
											CHANNELS 3 Xrotation Yrotation Zrotation
											JOINT RightHandIndex4
											{
												OFFSET -4.409401 0.000000 0.000000
												CHANNELS 3 Xrotation Yrotation Zrotation
												End Site
												{
													OFFSET 0.000000 4.409363 0.014408
												}
											}
										}
									}
								}
								JOINT RightHandMiddle1
								{
									OFFSET -23.810097 0.000000 0.000000
									CHANNELS 3 Xrotation Yrotation Zrotation
									JOINT RightHandMiddle2
									{
										OFFSET -7.176498 0.000000 0.000000
										CHANNELS 3 Xrotation Yrotation Zrotation
										JOINT RightHandMiddle3
										{
											OFFSET -6.774902 0.000000 0.000000
											CHANNELS 3 Xrotation Yrotation Zrotation
											JOINT RightHandMiddle4
											{
												OFFSET -5.403328 0.000000 0.000000
												CHANNELS 3 Xrotation Yrotation Zrotation
												End Site
												{
													OFFSET 0.027702 5.403244 0.017457
												}
											}
										}
									}
								}
								JOINT RightHandRing1
								{
									OFFSET -22.908302 -0.839325 -6.020576
									CHANNELS 3 Xrotation Yrotation Zrotation
									JOINT RightHandRing2
									{
										OFFSET -6.337502 0.000000 0.000000
										CHANNELS 3 Xrotation Yrotation Zrotation
										JOINT RightHandRing3
										{
											OFFSET -5.779297 0.000000 0.000000
											CHANNELS 3 Xrotation Yrotation Zrotation
											JOINT RightHandRing4
											{
												OFFSET -4.965698 0.000000 0.000000
												CHANNELS 3 Xrotation Yrotation Zrotation
												End Site
												{
													OFFSET 0.000000 4.965668 0.016226
												}
											}
										}
									}
								}
								JOINT RightHandPinky1
								{
									OFFSET -20.037003 -1.530334 -10.950259
									CHANNELS 3 Xrotation Yrotation Zrotation
									JOINT RightHandPinky2
									{
										OFFSET -5.254700 0.000000 0.000000
										CHANNELS 3 Xrotation Yrotation Zrotation
										JOINT RightHandPinky3
										{
											OFFSET -4.810204 0.000000 0.000000
											CHANNELS 3 Xrotation Yrotation Zrotation
											JOINT RightHandPinky4
											{
												OFFSET -3.647202 0.000000 0.000000
												CHANNELS 3 Xrotation Yrotation Zrotation
												End Site
												{
													OFFSET 0.000000 3.647186 0.011917
												}
											}
										}
									}
								}
							}
						}
					}
				}
			}
		}
	}
	JOINT LeftUpLeg
	{
		OFFSET 15.427100 -6.655098 0.678600
		CHANNELS 3 Xrotation Yrotation Zrotation
		JOINT LeftLeg
		{
			OFFSET 4.081073 -39.591068 13.024000
			CHANNELS 3 Xrotation Yrotation Zrotation
			JOINT LeftFoot
			{
				OFFSET -4.081074 -37.707932 -15.979700
				CHANNELS 3 Xrotation Yrotation Zrotation
				JOINT LeftToeBase
				{
					OFFSET 5.346399 -15.068900 20.645000
					CHANNELS 3 Xrotation Yrotation Zrotation
					JOINT LeftToe_End
					{
						OFFSET 2.754700 0.931300 11.300900
						CHANNELS 3 Xrotation Yrotation Zrotation
						End Site
						{
							OFFSET 0.000000 11.669021 0.000000
						}
					}
				}
			}
		}
	}
	JOINT RightUpLeg
	{
		OFFSET -15.569500 -6.655098 0.678600
		CHANNELS 3 Xrotation Yrotation Zrotation
		JOINT RightLeg
		{
			OFFSET -4.081825 -39.591045 13.023800
			CHANNELS 3 Xrotation Yrotation Zrotation
			JOINT RightFoot
			{
				OFFSET 4.081824 -37.707954 -15.979600
				CHANNELS 3 Xrotation Yrotation Zrotation
				JOINT RightToeBase
				{
					OFFSET -5.346400 -15.068900 20.645000
					CHANNELS 3 Xrotation Yrotation Zrotation
					JOINT RightToe_End
					{
						OFFSET -2.754700 0.931300 11.300900
						CHANNELS 3 Xrotation Yrotation Zrotation
						End Site
						{
							OFFSET 0.000000 11.669021 0.000000
						}
					}
				}
			}
		}
	}
}
MOTION
Frames: 4
Frame Time: 0.033333
1.719269 97.206459 -8.822720 -0.718848 -5.990419 -3.458517 1.172313 0.766526 1.395600 2.349031 1.503718 1.641736 2.349030 1.503719 1.641735 -10.175396 0.995515 1.395198 4.559458 1.296876 -2.896507 0.000000 0.000000 0.000000 -2.345049 0.229859 -11.201378 17.652574 -22.552858 -63.812839 0.735409 -26.843005 0.332022 -31.220699 -4.059835 10.554630 15.093724 9.090668 8.177585 7.278502 9.572817 -0.684856 -0.000000 -0.000007 -0.000009 -0.000000 -0.000001 -0.000002 -6.489609 12.415249 -8.172494 0.451422 0.705940 -16.464854 0.000000 0.000001 -0.000009 0.000000 0.000000 -0.000002 -0.805126 6.906508 -10.593386 -0.015435 -0.292056 -10.347107 -0.000000 -0.000001 -0.000011 -0.000000 -0.000001 -0.000001 1.932587 6.552084 -19.233152 -0.098557 0.115996 -10.400620 -0.000002 -0.000000 -0.000007 -0.000001 0.000001 -0.000000 6.654883 6.908993 -28.694796 -0.494841 -2.794974 -16.375332 -0.000002 -0.000002 -0.000010 -0.000000 0.000000 -0.000002 -1.546628 -0.099599 7.361524 5.800150 -4.268403 74.295123 -29.781940 20.633315 14.752925 37.876315 0.364704 -3.959012 -12.281548 -10.889310 -9.550362 2.008794 -3.890688 -2.570096 0.000001 -0.000005 -0.000007 0.000000 0.000000 0.000000 -8.787069 -6.758628 5.326499 0.264225 -1.422507 23.907539 -0.000000 0.000001 0.000001 -0.000001 0.000000 0.000001 -1.877530 -3.014896 18.520731 -0.267679 1.497353 17.151138 0.000002 0.000000 -0.000000 0.000001 0.000001 -0.000000 -0.582827 -4.019934 20.369702 -0.358502 0.446843 9.351822 0.000002 -0.000000 0.000001 0.000001 -0.000000 0.000001 1.513186 -3.501518 22.411925 -1.288481 4.063864 12.536178 -0.000001 0.000001 0.000000 0.000001 0.000001 -0.000000 -13.362927 1.828595 9.151407 14.275014 0.037623 -0.426316 2.045489 18.082921 -3.693491 0.846909 3.203280 -2.537909 -0.000000 0.000002 0.000000 1.910240 -6.597810 7.162678 6.928352 0.199607 0.563765 -8.108075 -12.536547 -4.232815 -2.755870 0.969576 -0.586100 -0.000000 -0.000000 -0.000000 
1.757919 96.908455 -8.838634 -0.670713 -5.994742 -3.364307 1.179125 0.767706 1.339106 2.361474 1.502460 1.626640 2.361474 1.502458 1.626640 -10.041697 1.152707 1.416813 5.507260 -0.636055 -2.382919 0.000000 0.000000 -0.000000 -2.322996 0.205994 -11.168875 17.683242 -22.263439 -63.772971 0.722715 -26.672223 0.324359 -30.714814 -4.295851 10.216069 14.864918 8.927778 8.275547 7.264362 9.638103 -0.740831 0.000003 -0.000008 -0.000012 0.000001 0.000001 0.000001 -6.510616 12.321352 -8.340464 0.453445 0.711784 -16.401914 -0.000000 0.000001 -0.000010 -0.000000 -0.000000 -0.000003 -0.808457 6.885083 -10.710630 -0.015038 -0.288837 -10.286456 -0.000000 -0.000001 -0.000012 -0.000000 -0.000001 0.000000 1.921013 6.520242 -19.292334 -0.101327 0.105588 -10.514739 -0.000001 -0.000000 -0.000008 0.000001 -0.000000 0.000001 6.648697 6.873296 -28.750629 -0.488465 -2.774203 -16.256591 -0.000001 -0.000002 -0.000008 -0.000000 0.000001 0.000000 -1.519785 -0.096326 7.387498 6.148798 -4.421485 74.227497 -29.237117 21.157553 14.706765 38.028840 0.593796 -3.297832 -12.733163 -10.989262 -9.561514 2.118804 -3.894744 -2.482863 0.000001 -0.000004 -0.000010 -0.000000 0.000000 0.000001 -8.689301 -6.703724 5.378689 0.256408 -1.402482 24.118737 -0.000000 0.000000 0.000003 -0.000000 0.000000 -0.000000 -1.865583 -3.029468 18.460393 -0.274675 1.519012 17.396490 0.000001 -0.000001 -0.000003 0.000000 0.000000 -0.000002 -0.582744 -4.034388 20.234099 -0.360879 0.462152 9.873650 -0.000000 -0.000000 0.000001 0.000000 0.000002 0.000001 1.523727 -3.487268 22.227553 -1.269980 3.978904 13.100028 -0.000001 -0.000001 -0.000001 -0.000001 0.000000 0.000000 -13.848761 1.926159 9.157493 15.066069 0.023376 -0.468581 1.676121 17.935225 -3.685386 0.846606 3.203284 -2.537688 -0.000000 0.000002 -0.000000 1.381192 -7.064851 7.014425 8.016363 0.183962 0.549747 -8.661799 -12.112986 -4.207421 -2.982841 0.966287 -0.579132 -0.000000 0.000000 -0.000000 
1.841943 96.683731 -8.828631 -0.555326 -5.867421 -3.296569 1.175959 0.743818 1.293549 2.354471 1.449960 1.596409 2.354469 1.449960 1.596409 -9.751035 1.316987 1.420888 6.780447 -2.630269 -1.885316 0.000000 0.000000 0.000000 -2.267716 0.183538 -11.011488 17.681872 -21.755700 -63.891802 0.703559 -26.498047 0.313845 -29.246429 -4.546772 9.586883 14.044099 8.340394 8.533451 7.370502 10.037585 -1.025463 -0.000000 -0.000007 -0.000012 -0.000000 -0.000000 -0.000001 -6.550221 12.192722 -8.505146 0.455700 0.716221 -16.325721 0.000001 0.000002 -0.000008 0.000001 -0.000000 -0.000002 -0.836586 6.737222 -10.995321 -0.013760 -0.276424 -10.053461 -0.000001 -0.000000 -0.000010 0.000000 0.000002 0.000000 1.890960 6.438888 -19.462156 -0.106576 0.087103 -10.721096 -0.000002 0.000001 -0.000006 0.000000 -0.000000 0.000001 6.610887 6.743300 -28.812060 -0.469789 -2.714826 -15.916837 -0.000002 -0.000002 -0.000009 -0.000000 -0.000000 -0.000000 -1.473796 -0.333964 7.470777 6.407720 -4.704157 74.111815 -28.675299 21.581250 14.595935 38.634419 0.764319 -2.616183 -13.312191 -10.723947 -9.664249 2.389517 -4.261778 -2.276572 0.000001 -0.000005 -0.000007 -0.000000 0.000000 -0.000002 -8.655350 -6.426087 5.791914 0.249884 -1.385071 24.387744 -0.000000 0.000000 0.000002 0.000000 -0.000000 -0.000000 -1.889962 -2.994279 18.775507 -0.281884 1.538845 17.641981 0.000002 -0.000001 -0.000001 0.000000 -0.000000 0.000001 -0.625502 -3.983063 20.396413 -0.360785 0.468951 10.471779 -0.000000 -0.000001 0.000001 0.000001 -0.000000 0.000003 1.580022 -3.577792 22.185481 -1.250055 3.881240 13.935375 -0.000000 0.000001 -0.000000 -0.000000 0.000002 -0.000000 -14.382652 2.323679 9.190026 15.675721 0.010295 -0.500992 1.383843 17.366152 -3.580998 0.844595 3.203362 -2.536134 -0.000000 0.000000 -0.000000 0.946891 -7.467311 6.881902 8.806741 0.175462 0.549388 -9.091141 -11.873551 -4.164773 -3.174850 0.949522 -0.565001 0.000000 0.000002 0.000000 
1.935840 96.363358 -8.673223 -0.301851 -5.533907 -3.262705 1.152421 0.691821 1.265287 2.306897 1.338602 1.578039 2.306894 1.338601 1.578039 -9.464172 1.505956 1.285325 8.683190 -4.471655 -1.513344 -0.000001 -0.000000 0.000000 -2.186623 0.243082 -10.762129 17.674701 -21.139809 -64.126174 0.682464 -26.361713 0.302967 -26.879571 -4.798375 8.650026 12.826273 7.462567 8.891458 7.585228 10.739766 -1.515396 -0.000002 -0.000005 -0.000010 -0.000003 0.000000 0.000001 -6.619890 11.964039 -8.744648 0.458954 0.722682 -16.284914 0.000001 0.000001 -0.000008 0.000000 0.000000 -0.000001 -0.886369 6.493078 -11.372729 -0.011931 -0.258793 -9.722224 -0.000001 -0.000001 -0.000010 -0.000000 -0.000000 -0.000001 1.844317 6.318516 -19.663818 -0.114719 0.058894 -11.037219 -0.000002 0.000001 -0.000007 0.000001 -0.000001 -0.000001 6.559864 6.547800 -28.987422 -0.441147 -2.620871 -15.380621 -0.000001 -0.000003 -0.000009 0.000000 -0.000001 0.000001 -1.421750 -0.723635 7.467951 6.675572 -5.191553 74.066899 -28.098423 21.918987 14.431625 39.559336 0.897514 -2.025565 -13.892402 -10.109966 -9.996250 2.686612 -4.736778 -1.969430 0.000002 -0.000004 -0.000008 -0.000000 -0.000000 0.000002 -8.695690 -5.883936 6.046404 0.244341 -1.369826 24.703818 -0.000001 0.000001 0.000001 0.000000 0.000000 -0.000001 -1.941463 -2.878994 19.158013 -0.289273 1.557427 17.887610 0.000002 0.000000 -0.000003 0.000001 -0.000001 -0.000001 -0.643908 -3.999312 20.491486 -0.361956 0.476168 11.272332 -0.000000 -0.000002 0.000001 -0.000001 -0.000000 0.000001 1.723632 -3.854331 21.924246 -1.226973 3.773554 15.017726 0.000001 0.000002 0.000001 0.000001 0.000000 0.000003 -15.256686 3.142959 9.349773 16.614239 -0.006197 -0.548501 0.851088 16.126193 -3.373939 0.841547 3.203473 -2.533776 0.000000 -0.000000 0.000000 0.417704 -7.883325 6.778547 9.792590 0.175436 0.565091 -9.766850 -11.831059 -4.120649 -3.248548 0.919342 -0.545630 0.000000 0.000001 -0.000000 
